<svg id="Camada_1" data-name="Camada 1" xmlns="http://www.w3.org/2000/svg" viewBox="0 0 901.35 348.45"><path d="M6.18,7.25H89.81C112,8.1,134.67,11.48,151,28c15.57,15.71,20.46,38.68,20.31,60.17l-.27,165.47c.07,22.26-5.3,45.37-20.49,62.27-16,17.75-38.36,24.14-61.13,27.9q-41.7,5.44-83.25,11.94ZM88.49,295.79q13.41-1.47,20.62-9.84c4.8-5.58,7.22-14.05,7.24-25.48q.11-86.63.23-173.25,0-17.14-7.18-24.61c-4.8-5-11.68-7.43-20.64-7.27l-27.86.53Q60.8,177.43,60.7,299C71.81,297.66,77.37,297,88.49,295.79Z" transform="translate(-6.18 -7.25)" style="fill:#e50914"/><path d="M232.28,7.25H377.13l0,44.87q-45.08.2-90.13.56-.06,44.29-.13,88.59,35.39-.86,70.76-1.4,0,22.49-.05,45-35.39.73-70.77,1.87-.11,69.29-.2,138.57Q259.16,327,231.76,329,232,168.15,232.28,7.25Z" transform="translate(-6.18 -7.25)" style="fill:#e50914"/><path d="M423.51,7.25h54.76l.06,268.34q45.17.38,90.32,1.79l0,45q-72.63-2.65-145.28-2Q423.46,163.83,423.51,7.25Z" transform="translate(-6.18 -7.25)" style="fill:#e50914"/><path d="M615.75,7.25H670.5q.25,160.47.52,321-27.42-2-54.84-3.56Q616,165.94,615.75,7.25Z" transform="translate(-6.18 -7.25)" style="fill:#e50914"/><path d="M779.84,169.05Q750.11,88,719.37,7.25h57.74q18.69,54,37,108.24l1,0q19-54.07,37.7-108.28h51.77Q875.07,90.32,844.46,173q32.37,91.08,63.07,182.73-28.69-4.49-57.45-8.51-19.62-61-39.84-121.87l-1-.08q-20.1,56-40.6,111.91-25.85-2.76-51.73-5.16Q748.8,250.69,779.84,169.05Z" transform="translate(-6.18 -7.25)" style="fill:#e50914"/><path d="M1080,469" transform="translate(-6.18 -7.25)" style="fill:#e50914"/><path d="M99,413" transform="translate(-6.18 -7.25)" style="fill:#e50914"/></svg>